<svg id="Layer_1" data-name="Layer 1" xmlns="http://www.w3.org/2000/svg" viewBox="0 0 478.96 337.91"><defs><style>.cls-1{fill:#a9d9e8;}.cls-2{fill:#f8f8f8;}.cls-3{fill:#fefefe;}</style></defs><path class="cls-1" d="M472.62,231.45c-4.68,19-11.13,37.5-14.09,56.9-7.39,35-16,69.75-25.14,104.36-4.4,16.72-13.64,24.08-30.6,24.1q-184.69.19-369.4,0c-16.32,0-21.61-5.77-17.08-20.11,6.18-19.56,10.9-39.57,16.79-59.22C46.61,292.31,59.68,247,73.63,202c5.49-17.72,13.94-24.39,32.6-24.42q157.74-.24,315.46.16c15.22.06,30.47.88,45.71.77a20.18,20.18,0,0,1,13.94,5c3.93,4.67,1.43,9.89.24,14.35C478.6,209.08,476.72,220.57,472.62,231.45Z" transform="translate(-10.52 -81.04)"/><path class="cls-2" d="M480.72,184.93c-4.45-3.59-9.56-4.62-15.2-4.62q-180.25.1-360.51.08c-15.69,0-23.55,5.54-27.59,19Q47.92,297.8,18.61,396.26c-4.17,14-.5,19.08,14.11,19.09q185.85.12,371.71,0c14.35,0,21.87-6.46,25.37-20.14q12.46-48.76,25.16-97.47a88.78,88.78,0,0,1,3.57-9.37c2.38,5.57-.82,10.5-1.81,15.68s-3.47,10.22,2.16,14.75c3.05,2.45,1.9,5.92-1.8,7.05-8.53,2.62-10.13,9.87-8.19,16.15,5.51,17.9-6.17,31.85-8.94,47.73-1.8,10.33-10.43,14.28-15.37,21.52-5.8,8.49-16.1,7.57-25,7.59q-152.19.29-304.39.12c-19.35,0-38.69.05-58,0a49,49,0,0,1-10-.93c-15.64-3.32-14.29-3.32-13.45-19.4.46-8.57,3.11-14.64,7.2-21.56,5.82-9.83,2.51-19.17-7.5-26.19-3-2.12-2.87-5.15-2.87-8.18q0-116,0-232.07c0-3,.23-5.26,3.42-7.59,6.78-5,12.7-11.13,9-21.94,12.23,6.16,23.39.14,34.85,1.13,25.93,2.25,52.2.52,78.33.83,7.06.08,13.53-3.13,21-1.4,12.82,3,21,8.41,24.68,22.29,6.37,24,7.27,23.76,31.79,23.76,63.12,0,126.24.25,189.36-.13,25.27-.15,27.76,14.78,23.78,35.65-.91,4.74-4.9,4.82-9.06,7.48,9.16,2.44,16.36,6.26,25.39,6.21,13.6-.07,27.7-3.25,40.71,4.22,6.53,3.74,8,7.18,1,11.7C482.38,190.73,483.68,186.71,480.72,184.93Z" transform="translate(-10.52 -81.04)"/><path class="cls-1" d="M63.39,184.68q-15.3,51.1-30.6,102.19c-5.26,17.62-10.45,35.26-16.08,54.27-2.83-4.72-2-8.12-2-11.3q-.08-99.22.07-198.46A64.22,64.22,0,0,1,16,117.24C22.24,90.29,32,85,54,85.65c28.14.84,56.32.21,84.48.2,23.14,0,30.53,5.26,38,27.09,5.8,17,5.8,17,24.11,17q96.71,0,193.41,0c5.09,0,10.24-.25,15.25.43,12.4,1.68,20.94,16.87,16.19,28.06-1.15,2.73-3.19,3.17-5.69,3.18-4.07,0-8.14.09-12.21.09q-148.11,0-296.23,0c-4.4,0-8.81.25-13.21.39-7.76,1.95-15.8,3.13-22.39,8.25h0C69.91,173.74,66.66,179.22,63.39,184.68Z" transform="translate(-10.52 -81.04)"/><path class="cls-3" d="M35,319.69c2.05,7.31-3.82,12.21-2.84,18.63.15,1-1.66,2.65-2.94,1.72a19.51,19.51,0,0,1-5.51-5.58c-1.37-2.34.37-5.11,2.24-6C29.9,326.59,33.64,324.89,35,319.69Z" transform="translate(-10.52 -81.04)"/></svg>