<svg id="Capa_1" data-name="Capa 1" xmlns="http://www.w3.org/2000/svg" viewBox="0 0 50 43"><defs><style>.cls-1{fill:#a9d9e8;}</style></defs><path class="cls-1" d="M1,24.5a1,1,0,0,1-1-1,13,13,0,0,1,13-13H38a1,1,0,0,1,0,2H13a11,11,0,0,0-11,11A1,1,0,0,1,1,24.5Z" transform="translate(0 -3.5)"/><polygon class="cls-1" points="38 16 49 8 38 0 38 16"/><path class="cls-1" d="M37,39.5H12a1,1,0,0,1,0-2H37a11,11,0,0,0,11-11,1,1,0,0,1,2,0A13,13,0,0,1,37,39.5Z" transform="translate(0 -3.5)"/><polygon class="cls-1" points="12 27 1 35 12 43 12 27"/></svg>