<svg id="Layer_1" data-name="Layer 1" xmlns="http://www.w3.org/2000/svg" viewBox="0 0 462.15 473.23"><defs><style>.cls-1{fill:#a6d6e5;}</style></defs><path class="cls-1" d="M462.44,221.83c0-3.9.58-7.79,0-11.71a10.91,10.91,0,0,0-8.44-9.58c-6.12-1.54-12.26-3-18.38-4.56a155.66,155.66,0,0,0-15.73-3.27A55.1,55.1,0,0,1,408.07,190a22.79,22.79,0,0,1-13.17-12,35.18,35.18,0,0,1-2.4-8.09c-.92-4.69-3.33-8.77-5.63-12.87a11.2,11.2,0,0,1-1.46-4.5c-.29-3.27,1.12-5.95,2.77-8.59q5.9-9.42,11.72-18.9c4.25-6.94,8.45-13.9,12.66-20.85,1.7-2.79,3.64-5.49,3.3-8.93a7,7,0,0,0-1.46-5,38.1,38.1,0,0,0-3.62-4c-4.26-4.49-8.74-8.77-13-13.26-3-3.2-6.22-6.22-9.26-9.39-3.95-4.12-7.68-8.45-11.91-12.27a10,10,0,0,0-9.75-2.41,20.82,20.82,0,0,0-6.14,3.12c-13,8.73-26.4,16.86-39.42,25.58a10.72,10.72,0,0,1-11.92.57c-3-1.64-6.18-3-9.32-4.36-4.95-2.21-10-4.13-15.07-6.08a9.87,9.87,0,0,1-6.62-7.41c-1-4.89-2.15-9.77-3.24-14.64-1.2-5.35-2.42-10.69-3.6-16-.76-3.45-1.41-6.92-2.23-10.36-.87-3.66-1.26-7.44-2.59-11-1.46-3.89-4-6.54-8.22-7.4a31.81,31.81,0,0,0-8.44-.23c-3.9.23-7.81.11-11.73.21-5.1.13-10.21.13-15.32-.09S212.81.7,207.72.54a12.68,12.68,0,0,0-5.9,1.26c-3.82,1.84-5.4,5.26-6.28,9.11-1.17,5.15-2.22,10.32-3.34,15.48C191,31.93,189.8,37.48,188.51,43c-1.2,5.14-1.74,10.42-3.3,15.48s-4.71,8.81-9.86,10.58c-1.77.61-3.6,1-5.38,1.56-5.78,1.81-11.08,4.69-16.4,7.52-3.85,2-7.58,2.14-11.3-.25l-5.81-3.77q-14.54-9.34-29.08-18.67c-3.12-2-6-4.32-9.43-5.87a9.6,9.6,0,0,0-9,.08c-2.56,1.36-4.43,3.45-6.37,5.52-4.31,4.61-8.73,9.12-13.12,13.64-6.33,6.5-13,12.71-19.11,19.38a10.73,10.73,0,0,0-3,8.28A14.91,14.91,0,0,0,50,103.25c2.65,4.18,5.14,8.45,7.63,12.71a181.87,181.87,0,0,0,9.93,15.79c2.73,3.73,5.45,7.46,7.2,11.8a23.77,23.77,0,0,1-1.58,21.79c-1.58,2.75-3.55,5.3-4.5,8.41-.67,2.21-1.36,4.41-1.86,6.66-1.1,4.91-4,7.91-9,8.92-2.48.51-5,1.08-7.44,1.63-13.38,2.94-26.68,6.23-40,9.36C3.69,201.89.58,205.89.6,212.72c0,2.71.16,5.42.17,8.13.06,12.5.25,25-.16,37.51A27.15,27.15,0,0,0,1,264.79c1.05,5.08,4.46,7.74,9.24,8.9,6.29,1.52,12.6,2.94,18.9,4.43,4.48,1.06,8.94,2.19,13.43,3.23,5.07,1.17,10.17,2.19,15.22,3.41a11.76,11.76,0,0,1,8,6.05,28.73,28.73,0,0,1,1.81,4.92,146,146,0,0,0,8.55,21c2.08,4.2,2.08,8.42-.48,12.41-8.86,13.83-17.1,28-25.79,42-2.82,4.51-3.63,9.15-.18,13.8A36.52,36.52,0,0,0,53.34,389c5.45,5.46,10.93,10.9,16.34,16.39S80.09,416.63,85.58,422a11.07,11.07,0,0,0,13.34,2.08c3.59-1.78,6.69-4.33,10-6.47q14.68-9.34,29.32-18.74a43.3,43.3,0,0,1,5.28-3.26,11.24,11.24,0,0,1,10.13.42,186.6,186.6,0,0,0,23.68,9.93,10.74,10.74,0,0,1,7.56,8.47c.59,2.84,1.12,5.69,1.75,8.51q3.66,16.45,7.39,32.88a99.76,99.76,0,0,0,2.36,10.09,10.56,10.56,0,0,0,5,6.19,13,13,0,0,0,6.22,1.41c4.47,0,8.94.06,13.41-.15,3.74-.19,7.5,0,11.25.11,5.39.18,10.79.06,16.19.08,1.27,0,2.55,0,3.82.11a17.24,17.24,0,0,0,8.78-1.17c3.64-1.63,5.48-4.77,6.36-8.49.93-3.94,1.69-7.92,2.56-11.87,1.21-5.47,2.5-10.91,3.68-16.39,1.33-6.24,2.51-12.52,3.87-18.76,1.42-6.47,5.15-10.75,11.79-12.37a58.33,58.33,0,0,0,17.4-7.35,16.49,16.49,0,0,1,5.2-2.25,10.33,10.33,0,0,1,3.54-.37,18,18,0,0,1,7.94,3.06c2.75,1.84,5.48,3.72,8.26,5.5,10.21,6.53,20.5,12.93,30.58,19.66,5.69,3.8,11.05,3.32,15.92-1.47,3.15-3.11,6.1-6.42,9.19-9.6q6.16-6.37,12.39-12.69c3.89-3.93,7.83-7.82,11.72-11.75a16.1,16.1,0,0,0,2.82-3.54,10.29,10.29,0,0,0,1.4-7.1,18.2,18.2,0,0,0-2.5-6c-2.22-3.69-4.51-7.34-6.72-11-3.9-6.54-7.74-13.11-12-19.46-2.27-3.41-4.9-6.58-6.6-10.37a17.87,17.87,0,0,1-.27-15c.86-2,2.06-3.78,3.09-5.67a57.56,57.56,0,0,0,5.24-14.31c.9-3.65,2.51-6.8,6-8.69a23.05,23.05,0,0,1,6.11-1.95c6.77-1.52,13.56-3,20.31-4.63,8.25-2,16.54-3.88,24.81-5.84a12.2,12.2,0,0,0,7.24-4.28,12.35,12.35,0,0,0,2.23-7.18c.14-2.39-.13-4.79-.15-7.17C462.41,244,462.48,232.9,462.44,221.83ZM332.72,275.37a82,82,0,0,1-22.64,35.24,82,82,0,0,1-35.24,22.64,82.5,82.5,0,0,1-42.19,9.44,109.18,109.18,0,0,1-55.26-14.95l-22.17-17.13a109.48,109.48,0,0,1-28.16-48.32q-2-14.55-3.91-29.1a82.5,82.5,0,0,1,9.39-42.14,82.2,82.2,0,0,1,22.64-35.24,82,82,0,0,1,35.24-22.64,82.39,82.39,0,0,1,42.19-9.43,108.94,108.94,0,0,1,55.27,15L310,155.86a109.33,109.33,0,0,1,28.16,48.19q1.95,14.55,3.91,29.11A82.44,82.44,0,0,1,332.72,275.37Z" transform="translate(-0.55 -0.53)"/></svg>