<svg id="Layer_1" data-name="Layer 1" xmlns="http://www.w3.org/2000/svg" viewBox="0 0 450.29 337.61"><defs><style>.cls-1{fill:#a9d9e8;}</style></defs><path class="cls-1" d="M249.43,278.08q-97.27,0-194.55,0c-17.61,0-30.15-12.32-29.83-28.87a28.08,28.08,0,0,1,24.35-27,53.86,53.86,0,0,1,6.48-.3c129.51,0,259,.15,388.51-.18,19.86-.05,31.69,15.5,30.7,29.95a28.28,28.28,0,0,1-24.63,26.15,67.47,67.47,0,0,1-7.66.3H249.43Z" transform="translate(-24.86 -81.19)"/><path class="cls-1" d="M250.68,81.2q97.88,0,195.74,0c12.46,0,22.73,7.16,27,18.46a28.17,28.17,0,0,1-8.22,31.12c-5.81,5-12.65,6.74-20.25,6.73q-124.18-.1-248.37,0-71.26,0-142.52-.06c-15.13,0-27-10.25-28.79-24.4-1.79-14.36,7.1-27.31,21.52-31a35.71,35.71,0,0,1,8.78-.76q97.57-.06,195.15,0Z" transform="translate(-24.86 -81.19)"/><path class="cls-1" d="M250,418.77H54.24c-11.67,0-20.59-5-26-15.34-5.19-10-4.37-19.9,2.05-29.06,5.56-7.93,13.47-11.86,23.23-11.87h55.59q168.24,0,336.48,0c17.14,0,29.81,12.4,29.48,28.65a28.09,28.09,0,0,1-28.18,27.58c-23.66.14-47.31,0-71,0Z" transform="translate(-24.86 -81.19)"/></svg>