<svg id="Layer_1" data-name="Layer 1" xmlns="http://www.w3.org/2000/svg" viewBox="0 0 256.67 188.2"><defs><style>.cls-1{fill:#a9d9e8;stroke:#0025df;stroke-miterlimit:10;}</style></defs><path class="cls-1" d="M259.89,248.38c0,25.09-.11,50.18.06,75.26.05,7.67-2.48,13.48-9.66,16.72s-13.27,1-18.86-4.12c-16-14.58-32.11-29-48.11-43.54a7.49,7.49,0,0,0-5.58-2.12c-12.62.11-25.24.07-37.86,0-10.77,0-17.34-6.54-17.38-17.4q-.1-25,0-50c0-10.92,6.5-17.36,17.35-17.4,12.47,0,24.94-.08,37.41,0a8.66,8.66,0,0,0,6.38-2.41c16.06-14.49,32.28-28.8,48.33-43.3,5.52-5,11.48-7.12,18.49-3.88s9.5,9,9.47,16.43C259.81,197.9,259.89,223.14,259.89,248.38Z" transform="translate(-121.95 -154.18)"/><path class="cls-1" d="M378.12,248.48c-.38,32.74-11.91,60.77-33.52,84.8-3.82,4.26-8.06,4.69-11.75,1.4s-4.1-8.13-.34-12.27c15.1-16.63,25.06-35.79,28.26-58.12,4.77-33.18-4.63-62.23-26.23-87.56-1.07-1.25-2.31-2.39-3.24-3.73a8.4,8.4,0,0,1,1.9-11.27c3.47-2.79,7-2.49,10.3,1.12C365.85,187.12,377.76,215.6,378.12,248.48Z" transform="translate(-121.95 -154.18)"/><path class="cls-1" d="M344.87,248.63c-.38,24.27-9.3,45.31-25.61,63.36-3.38,3.74-7.59,4.15-11.09,1.24-3.93-3.28-4.59-8-1.12-11.89,9.2-10.39,16.15-22,19.24-35.59,5.64-24.69.08-46.9-15.54-66.69-1.39-1.77-3-3.38-4.3-5.21-2.68-3.75-1.94-8.14,1.75-11.17s7.5-2.7,10.78.92C335.62,202,344.76,223.4,344.87,248.63Z" transform="translate(-121.95 -154.18)"/><path class="cls-1" d="M311.27,248.09c-.17,16.73-6.07,30.77-16.74,42.93-3.48,4-7.83,4.48-11.45,1.46s-4.31-8-.9-11.94c5.59-6.46,9.92-13.54,11.79-21.92,3.45-15.42-.38-29.08-10.47-41.06-2.4-2.86-4.46-5.66-3.08-9.7,2.11-6.18,9.27-7.91,13.58-3.05C305,217.25,311.16,231.7,311.27,248.09Z" transform="translate(-121.95 -154.18)"/></svg>